<?xml version="1.0" encoding="UTF-8"?>
<svg version="1.1" xmlns="http://www.w3.org/2000/svg" width="32" height="32">
<path d="M0 0 C1.9375 0.75 1.9375 0.75 4 2 C4.75 4.125 4.75 4.125 5 6 C4.34 6 3.68 6 3 6 C2.22596442 10.06368679 1.9015298 13.86425173 2 18 C2.99 18.33 3.98 18.66 5 19 C5 20.65 5 22.3 5 24 C4.01 24.33 3.02 24.66 2 25 C2.020625 25.969375 2.04125 26.93875 2.0625 27.9375 C2 31 2 31 1 32 C-3.30647636 32.25342236 -7.62445054 32.18522638 -11.9375 32.1875 C-13.15630859 32.19974609 -14.37511719 32.21199219 -15.63085938 32.22460938 C-17.37399414 32.22750977 -17.37399414 32.22750977 -19.15234375 32.23046875 C-20.7609729 32.23663208 -20.7609729 32.23663208 -22.40209961 32.24291992 C-25 32 -25 32 -27 30 C-28.98809072 15.74948716 -28.98809072 15.74948716 -25.1640625 10.4609375 C-22.85778631 8.7216528 -20.54874714 7.35160833 -18 6 C-17.071875 5.175 -16.14375 4.35 -15.1875 3.5 C-13 2 -13 2 -10.6875 2.25 C-10.130625 2.4975 -9.57375 2.745 -9 3 C-9 3.99 -9 4.98 -9 6 C-6.525 6.495 -6.525 6.495 -4 7 C-4 8.32 -4 9.64 -4 11 C-3.855625 10.2575 -3.71125 9.515 -3.5625 8.75 C-3.376875 7.8425 -3.19125 6.935 -3 6 C-2.855625 5.278125 -2.71125 4.55625 -2.5625 3.8125 C-2 2 -2 2 0 0 Z " fill="#74553F" transform="translate(27,0)"/>
<path d="M0 0 C0.556875 0.2475 1.11375 0.495 1.6875 0.75 C1.6875 1.74 1.6875 2.73 1.6875 3.75 C4.1625 4.245 4.1625 4.245 6.6875 4.75 C6.6875 6.07 6.6875 7.39 6.6875 8.75 C7.3475 9.08 8.0075 9.41 8.6875 9.75 C7.6975 9.75 6.7075 9.75 5.6875 9.75 C5.3575 8.43 5.0275 7.11 4.6875 5.75 C3.3675 5.75 2.0475 5.75 0.6875 5.75 C0.6875 4.43 0.6875 3.11 0.6875 1.75 C-3.65629284 4.08896538 -6.87106236 6.18565387 -10.3125 9.75 C-11.3025 10.08 -12.2925 10.41 -13.3125 10.75 C-13.6425 16.36 -13.9725 21.97 -14.3125 27.75 C-1.9375 27.255 -1.9375 27.255 10.6875 26.75 C11.0175 25.43 11.3475 24.11 11.6875 22.75 C9.7075 22.75 7.7275 22.75 5.6875 22.75 C5.6875 22.42 5.6875 22.09 5.6875 21.75 C8.3275 21.75 10.9675 21.75 13.6875 21.75 C13.6875 20.1 13.6875 18.45 13.6875 16.75 C11.0475 16.75 8.4075 16.75 5.6875 16.75 C5.6875 16.42 5.6875 16.09 5.6875 15.75 C7.6675 15.75 9.6475 15.75 11.6875 15.75 C12.0175 14.43 12.3475 13.11 12.6875 11.75 C12.6875 13.07 12.6875 14.39 12.6875 15.75 C13.6775 16.08 14.6675 16.41 15.6875 16.75 C15.6875 18.4 15.6875 20.05 15.6875 21.75 C14.6975 22.08 13.7075 22.41 12.6875 22.75 C12.708125 23.719375 12.72875 24.68875 12.75 25.6875 C12.6875 28.75 12.6875 28.75 11.6875 29.75 C7.38102364 30.00342236 3.06304946 29.93522638 -1.25 29.9375 C-2.46880859 29.94974609 -3.68761719 29.96199219 -4.94335938 29.97460938 C-6.68649414 29.97750977 -6.68649414 29.97750977 -8.46484375 29.98046875 C-10.0734729 29.98663208 -10.0734729 29.98663208 -11.71459961 29.99291992 C-14.3125 29.75 -14.3125 29.75 -16.3125 27.75 C-18.30059072 13.49948716 -18.30059072 13.49948716 -14.4765625 8.2109375 C-12.17028631 6.4716528 -9.86124714 5.10160833 -7.3125 3.75 C-6.384375 2.925 -5.45625 2.1 -4.5 1.25 C-2.3125 -0.25 -2.3125 -0.25 0 0 Z " fill="#1B130E" transform="translate(16.3125,2.25)"/>
<path d="M0 0 C1.9375 0.75 1.9375 0.75 4 2 C4.75 4.125 4.75 4.125 5 6 C4.34 6 3.68 6 3 6 C2.67 8.64 2.34 11.28 2 14 C-10.87 13.505 -10.87 13.505 -24 13 C-22.35 11.68 -20.7 10.36 -19 9 C-17.95604612 8.085939 -16.91395911 7.1697343 -15.875 6.25 C-13 4 -13 4 -10 4 C-10 5.32 -10 6.64 -10 8 C-8.68 7.67 -7.36 7.34 -6 7 C-5.67 8.65 -5.34 10.3 -5 12 C-4.01 11.67 -3.02 11.34 -2 11 C-2.185625 10.2575 -2.37125 9.515 -2.5625 8.75 C-2.99848823 6.00950257 -2.97224771 4.5631985 -2 2 C-1.34 1.34 -0.68 0.68 0 0 Z " fill="#19150D" transform="translate(27,0)"/>
<path d="M0 0 C1.98 0 3.96 0 6 0 C6.15855469 0.59167969 6.31710938 1.18335938 6.48046875 1.79296875 C8.05800039 7.13565876 9.64923763 10.30185198 14 14 C14.99 14.99 15.98 15.98 17 17 C11.39 17 5.78 17 0 17 C0 11.39 0 5.78 0 0 Z " fill="#624434" transform="translate(2,13)"/>
<path d="M0 0 C0 1.32 0 2.64 0 4 C1.32 3.67 2.64 3.34 4 3 C4.33 4.65 4.66 6.3 5 8 C2.87527424 8.05386629 0.75016348 8.09273071 -1.375 8.125 C-3.15003906 8.15980469 -3.15003906 8.15980469 -4.9609375 8.1953125 C-8 8 -8 8 -10 6 C-8.90398831 4.99106869 -7.79786082 3.99311775 -6.6875 3 C-6.07261719 2.443125 -5.45773438 1.88625 -4.82421875 1.3125 C-3 0 -3 0 0 0 Z " fill="#123C17" transform="translate(17,4)"/>
<path d="M0 0 C0.103125 0.639375 0.20625 1.27875 0.3125 1.9375 C0.6528125 2.9584375 0.6528125 2.9584375 1 4 C1.99 4.33 2.98 4.66 4 5 C4 6.65 4 8.3 4 10 C3.01 10.33 2.02 10.66 1 11 C1.020625 11.969375 1.04125 12.93875 1.0625 13.9375 C1 17 1 17 0 18 C-1.78071246 18.08726223 -3.5648314 18.10699041 -5.34765625 18.09765625 C-6.42724609 18.09443359 -7.50683594 18.09121094 -8.61914062 18.08789062 C-9.75544922 18.07951172 -10.89175781 18.07113281 -12.0625 18.0625 C-13.20267578 18.05798828 -14.34285156 18.05347656 -15.51757812 18.04882812 C-18.34510351 18.03699747 -21.1725264 18.0205141 -24 18 C-24 17.67 -24 17.34 -24 17 C-16.74 16.67 -9.48 16.34 -2 16 C-1.34 14.35 -0.68 12.7 0 11 C-1.98 11 -3.96 11 -6 11 C-6 10.67 -6 10.34 -6 10 C-3.36 10 -0.72 10 2 10 C2 8.35 2 6.7 2 5 C-0.64 5 -3.28 5 -6 5 C-6 4.67 -6 4.34 -6 4 C-4.02 4 -2.04 4 0 4 C0 2.68 0 1.36 0 0 Z " fill="#040202" transform="translate(28,14)"/>
<path d="M0 0 C2.97 0.33 5.94 0.66 9 1 C9 2.65 9 4.3 9 6 C4.545 6.495 4.545 6.495 0 7 C-1.125 2.25 -1.125 2.25 0 0 Z " fill="#4C3A2F" transform="translate(21,18)"/>
<path d="M0 0 C0.53625 0.268125 1.0725 0.53625 1.625 0.8125 C1.625 1.8025 1.625 2.7925 1.625 3.8125 C3.275 4.1425 4.925 4.4725 6.625 4.8125 C6.625 6.1325 6.625 7.4525 6.625 8.8125 C7.285 9.1425 7.945 9.4725 8.625 9.8125 C7.635 9.8125 6.645 9.8125 5.625 9.8125 C5.295 8.4925 4.965 7.1725 4.625 5.8125 C3.305 5.8125 1.985 5.8125 0.625 5.8125 C0.625 4.4925 0.625 3.1725 0.625 1.8125 C-3.23158398 3.96328722 -6.91819097 6.04705278 -10.375 8.8125 C-8.77644306 4.49639627 -4.93422816 -0.38954433 0 0 Z " fill="#030B04" transform="translate(16.375,2.1875)"/>
<path d="M0 0 C-0.125 1.8125 -0.125 1.8125 -1 4 C-3.875 5.8125 -3.875 5.8125 -7 7 C-7.99 6.67 -8.98 6.34 -10 6 C-8.90398831 4.99106869 -7.79786082 3.99311775 -6.6875 3 C-6.07261719 2.443125 -5.45773438 1.88625 -4.82421875 1.3125 C-3 0 -3 0 0 0 Z " fill="#3FB153" transform="translate(17,4)"/>
<path d="M0 0 C0 1.32 0 2.64 0 4 C-2.64 4 -5.28 4 -8 4 C-2.7826087 0 -2.7826087 0 0 0 Z " fill="#2B9237" transform="translate(21,7)"/>
<path d="M0 0 C0.99 0.33 1.98 0.66 3 1 C2.39816251 3.02045442 1.72693904 5.02111039 1 7 C0.01 7.495 0.01 7.495 -1 8 C-1.04241723 5.66705225 -1.04092937 3.33297433 -1 1 C-0.67 0.67 -0.34 0.34 0 0 Z " fill="#D5AC42" transform="translate(27,2)"/>
</svg>
